<mxfile host="app.diagrams.net" modified="2023-12-27T06:33:20.938Z" agent="Mozilla/5.0 (X11; Ubuntu; Linux x86_64; rv:120.0) Gecko/20100101 Firefox/120.0" version="22.1.11" etag="ycIpHYz2fa8QszfEQQve" type="github">
  <diagram name="第 1 页" id="RcYCrghBmFvPSSh3XzJO">
    <mxGraphModel>
      <root>
        <mxCell id="0" />
        <mxCell id="1" parent="0" />
      </root>
    </mxGraphModel>
  </diagram>
</mxfile>
